<svg xmlns="http://www.w3.org/2000/svg" width="76" height="32" fill="none"><g fill="#101214"><path d="M38.896 6.134h2.832V20.13c0 3.69-1.685 6.267-5.592 6.267-1.47 0-2.617-.243-3.406-.522v-2.681c.86.348 1.9.522 2.94.522 2.402 0 3.226-1.392 3.226-3.412zM46.927 5.054c1.11 0 1.9.662 1.9 1.846 0 1.149-.79 1.845-1.9 1.845-1.112 0-1.9-.661-1.9-1.845 0-1.15.788-1.846 1.9-1.846m-1.398 5.885h2.724v15.32h-2.724zM54.992 26.26H52.34V10.938h2.652v2.68c.932-1.81 2.51-3.098 5.593-2.924v2.577c-3.477-.349-5.593.661-5.593 3.934zM73.311 23.508c-1.004 2.02-2.904 3.064-5.341 3.064-4.195 0-6.31-3.447-6.31-7.973 0-4.318 2.223-7.974 6.632-7.974 2.295 0 4.087 1.01 5.02 2.995v-2.681h2.724v15.32H73.31zm-4.624.627c2.438 0 4.588-1.497 4.588-4.91v-1.218c0-3.412-1.971-4.91-4.302-4.91-3.047 0-4.624 1.95-4.624 5.502.036 3.69 1.541 5.536 4.338 5.536"/></g><path fill="#2684FF" d="M24.664 3H12.26c0 2.994 2.51 5.432 5.593 5.432h2.294v2.124c0 2.994 2.51 5.432 5.593 5.432V4.045c0-.592-.466-1.045-1.076-1.045"/><path fill="url(#a)" d="M18.534 8.989H6.13c0 2.994 2.51 5.432 5.593 5.432h2.294v2.158c0 2.995 2.51 5.432 5.592 5.432V10.033c0-.557-.466-1.044-1.075-1.044"/><path fill="url(#b)" d="M12.404 15.013H0c0 2.994 2.51 5.431 5.592 5.431h2.295v2.124c0 2.995 2.51 5.432 5.592 5.432V16.057c0-.592-.502-1.044-1.075-1.044"/><defs><linearGradient id="a" x1="19.346" x2="14.23" y1="9.019" y2="14.45" gradientUnits="userSpaceOnUse"><stop offset=".176" stop-color="#0052CC"/><stop offset="1" stop-color="#2684FF"/></linearGradient><linearGradient id="b" x1="13.56" x2="7.636" y1="15.053" y2="20.987" gradientUnits="userSpaceOnUse"><stop offset=".176" stop-color="#0052CC"/><stop offset="1" stop-color="#2684FF"/></linearGradient></defs></svg>