<?xml version="1.0" encoding="utf-8"?>
<svg xmlns="http://www.w3.org/2000/svg" viewBox="251.8604 104.102 16.0242 16" width="16.0242px" height="16px"><g id="object-2"><path d="M 259.873 119.102 C 254.484 119.102 251.116 113.269 253.81 108.602 C 255.061 106.436 257.372 105.102 259.873 105.102 C 265.261 105.102 268.629 110.935 265.935 115.602 C 264.684 117.768 262.373 119.102 259.873 119.102 M 259.873 120.102 C 266.031 120.102 269.88 113.435 266.801 108.102 C 265.372 105.627 262.731 104.102 259.873 104.102 C 253.714 104.102 249.865 110.769 252.944 116.102 C 254.373 118.577 257.014 120.102 259.873 120.102" style="fill: rgb(255, 255, 255);" id="object-0"/><path d="M 256.519 108.748 C 256.714 108.552 257.031 108.552 257.227 108.748 L 259.873 111.395 L 262.519 108.748 C 262.791 108.475 263.256 108.6 263.356 108.972 C 263.402 109.145 263.353 109.329 263.227 109.456 L 260.58 112.102 L 263.227 114.748 C 263.499 115.02 263.374 115.486 263.002 115.585 C 262.829 115.632 262.645 115.582 262.519 115.456 L 259.873 112.809 L 257.227 115.456 C 256.954 115.728 256.489 115.604 256.389 115.231 C 256.343 115.059 256.392 114.874 256.519 114.748 L 259.166 112.102 L 256.519 109.456 C 256.323 109.261 256.323 108.943 256.519 108.748" style="fill: rgb(255, 255, 255);" id="object-1"/></g></svg>